<svg xmlns="http://www.w3.org/2000/svg" width="248px" height="80px" viewBox="0 0 248 80" >
	<g class="word-wrap">
		<path class="letter" d="M1,30c-0.4-2.2-0.6-4.7-0.6-7.4h7.1c0,5.5,0.6,12.6,8,12.6c6.6,0,7.5-5.8,7.5-11.5V0l7.1,0.1v23.5c0,3-0.3,6.6-1,9.1
			c-1.7,5.9-6.9,8.9-13.5,8.9C6.6,41.6,2.3,37,1,30z"/>
		<path class="letter" d="M53.7,37.1c-0.9,1.8-5.3,4.4-9.6,4.4c-6.1,0-9.8-3.2-9.8-8.9c0-6,4.8-8.5,9.3-9.1c0.9-0.2,3.2-0.4,5.4-0.7l4.1-0.6
			c0-1.5-0.2-5.4-5.5-5.4c-3.3,0-5.3,1.3-5.5,4h-6.8c0.3-5.3,4.1-9.4,12.1-9.4c7.2,0,12.1,2.4,12.1,9.7V33c0,1.9,0.5,2.7,2.7,2.7
			v5.1C58.7,41.6,54.3,41.1,53.7,37.1z M45,28.5c-2.2,0.6-3,1.6-3.5,2.6c-1.1,2.5,0.6,5.2,3.4,5.2c4.7,0,8.1-3.1,8.1-6.7V27
			C50.8,27.3,47,27.9,45,28.5z"/>
		<path class="letter" d="M80.8,11.5c5.5,0,9.6,3,9.6,9.7v19.5h-6.7V21.9c0-2.6-1.6-5-4.6-5c-3.5,0-6.6,2.4-6.6,7.2v16.7h-6.7V12.2h6.6v3.6
			C73.4,13.3,77.2,11.5,80.8,11.5z"/>
		<path class="letter" d="M105,41.5c-5.5,0-9.6-3-9.6-9.7V12.2h6.7v18.9c0,2.6,1.6,5,4.6,5c3.5-0.1,6.4-2.3,6.4-7.2V12.2h6.7v28.6h-6.6v-3.6
			C112.3,39.7,108.7,41.5,105,41.5z"/>
		<path class="letter" d="M143.5,37.1c-0.9,1.8-5.3,4.4-9.6,4.4c-6.1,0-9.8-3.2-9.8-8.9c0-6,4.8-8.5,9.3-9.1c0.9-0.2,3.2-0.4,5.4-0.7l4.1-0.6
			c0-1.5-0.2-5.4-5.5-5.4c-3.3,0-5.3,1.3-5.5,4H125c0.3-5.3,4.1-9.4,12.1-9.4c7.2,0,12.1,2.4,12.1,9.7V33c0,1.9,0.5,2.7,2.7,2.7v5.1
			C148.5,41.6,144.1,41.1,143.5,37.1z M134.8,28.5c-2.2,0.6-3,1.6-3.5,2.6c-1.1,2.5,0.6,5.2,3.4,5.2c4.7,0,8.1-3.1,8.1-6.7V27
			C140.6,27.3,136.8,27.9,134.8,28.5z"/>
		<path class="letter" d="M162.4,14.9c1.8-2.2,3.7-3.3,6.5-3.3c1.8,0,3.6,0.4,5.1,1.3l-1.8,6.5c-1.5-1-2.9-1.5-4.2-1.5c-2.8,0-5.5,2-5.5,6.5v16.3
			h-6.7V12.1h6.6V14.9z"/>
		<path class="letter" d="M195.2,12.2h7.1l-5.2,15.9l-5.6,16.7c-0.9,2.6-3.5,7.9-9.7,7.9c-0.9,0-1.9-0.1-2.6-0.2l-1.2-0.2v-6.1
			c0.2,0.1,0.4,0.2,0.7,0.2c0.5,0.1,1,0.2,1.8,0.2c1.1,0,2.6-0.5,3.4-1.5c0.6-0.8,1.2-1.9,1.5-2.8l0.5-1.6l-10-28.4h7.3l5.9,20.2
			L195.2,12.2z"/>
	</g>

	<g class="rect-wrapper">
		<rect class="horizontal" x="212.3" y="34.7" width="35.3" height="6"/>
		<rect class="vertical" x="202.6" y="45" width="6" height="35"/>
	</g>
</svg>
